<svg xmlns="http://www.w3.org/2000/svg" width="30.937" height="38.3" viewBox="0 0 30.937 38.3"><path d="M135.743,86.9a8.989,8.989,0,0,1,6.494,2.71,9.166,9.166,0,0,1,2.71,6.494v3.784h3.221V97.127h3.068v6.9h0a15.493,15.493,0,0,1-13.96,15.392v2.71h2.506V125.2h-8.028v-3.068h2.506v-2.71A15.493,15.493,0,0,1,120.3,104.03h0v-6.9h3.068v2.761h3.221V96.1a8.989,8.989,0,0,1,2.71-6.494,8.786,8.786,0,0,1,6.443-2.71Zm9.2,16.056v1.074a9.2,9.2,0,0,1-18.409,0v-1.074h-3.221v1.074h0a12.2,12.2,0,0,0,3.631,8.744,12.376,12.376,0,0,0,8.744,3.631,12.2,12.2,0,0,0,8.744-3.631,12.376,12.376,0,0,0,3.631-8.744h0v-1.074Zm-15.34-3.068h12.272V96.1a6.326,6.326,0,0,0-1.79-4.346,6.105,6.105,0,0,0-4.346-1.79,6.326,6.326,0,0,0-4.346,1.79,6.105,6.105,0,0,0-1.79,4.346Z" transform="translate(-120.3 -86.9)" fill="#ff5300" fill-rule="evenodd"/></svg>