<svg xmlns="http://www.w3.org/2000/svg" width="1601.806" height="451.489" viewBox="0 0 1601.806 451.489">
  <g id="Group_663" data-name="Group 663" transform="translate(1.26 1.155)">
    <path id="Path_13411" data-name="Path 13411" d="M0,0H1600V450H0Z" fill="#f9f9f9"/>
    <g id="Group_659" data-name="Group 659" transform="translate(1282.387 0)" opacity="0.22">
      <path id="Path_13367" data-name="Path 13367" d="M748.8,422.152v33.3l28.8,16.652,28.863-16.652v-33.3L777.6,405.5Z" transform="translate(-691.136 -338.955)" fill="none" stroke="#c2c2c2" stroke-miterlimit="10" stroke-width="2"/>
      <path id="Path_13368" data-name="Path 13368" d="M702.1,341.552v33.242l28.863,16.652,28.8-16.652V341.552l-28.8-16.652Z" transform="translate(-615.635 -208.586)" fill="none" stroke="#c2c2c2" stroke-miterlimit="10" stroke-width="2"/>
      <path id="Path_13369" data-name="Path 13369" d="M608.6,287.552v33.3l28.863,16.652,28.8-16.652v-33.3l-28.8-16.652Z" transform="translate(-464.471 -121.344)" fill="none" stroke="#c2c2c2" stroke-miterlimit="10" stroke-width="2"/>
      <path id="Path_13370" data-name="Path 13370" d="M608.6,395.552v33.3l28.863,16.59,28.8-16.59v-33.3l-28.8-16.652Z" transform="translate(-464.471 -295.889)" fill="none" stroke="#c2c2c2" stroke-miterlimit="10" stroke-width="2"/>
      <path id="Path_13371" data-name="Path 13371" d="M561.9,314.252v33.3l28.8,16.59,28.8-16.59v-33.3L590.7,297.6Z" transform="translate(-388.908 -164.449)" fill="none" stroke="#c2c2c2" stroke-miterlimit="10" stroke-width="2"/>
      <path id="Path_13372" data-name="Path 13372" d="M515.1,287.552v33.3l28.8,16.652,28.863-16.652v-33.3L543.9,270.9Z" transform="translate(-313.307 -121.344)" fill="none" stroke="#c2c2c2" stroke-miterlimit="10" stroke-width="2"/>
      <path id="Path_13373" data-name="Path 13373" d="M561.9,368.152v33.3l28.8,16.652,28.8-16.652v-33.3L590.7,351.5Z" transform="translate(-388.908 -251.652)" fill="none" stroke="#c2c2c2" stroke-miterlimit="10" stroke-width="2"/>
      <path id="Path_13374" data-name="Path 13374" d="M748.8,206.952v33.241l28.8,16.652,28.863-16.652V206.952L777.6,190.3Z" transform="translate(-691.136 9.026)" fill="none" stroke="#c2c2c2" stroke-miterlimit="10" stroke-width="2"/>
      <path id="Path_13375" data-name="Path 13375" d="M702.1,233.552v33.3l28.863,16.652,28.8-16.652v-33.3l-28.8-16.652Z" transform="translate(-615.635 -34.041)" fill="none" stroke="#c2c2c2" stroke-miterlimit="10" stroke-width="2"/>
      <path id="Path_13376" data-name="Path 13376" d="M655.3,206.252v33.3l28.8,16.652,28.863-16.652v-33.3L684.1,189.6Z" transform="translate(-539.972 10.096)" fill="none" stroke="#c2c2c2" stroke-miterlimit="10" stroke-width="2"/>
      <path id="Path_13377" data-name="Path 13377" d="M655.3,314.252v33.3l28.8,16.59,28.863-16.59v-33.3L684.1,297.6Z" transform="translate(-539.972 -164.449)" fill="none" stroke="#c2c2c2" stroke-miterlimit="10" stroke-width="2"/>
      <path id="Path_13378" data-name="Path 13378" d="M515.1,395.552v33.3l28.8,16.59,28.863-16.59v-33.3L543.9,378.9Z" transform="translate(-313.307 -295.889)" fill="none" stroke="#c2c2c2" stroke-miterlimit="10" stroke-width="2"/>
      <path id="Path_13379" data-name="Path 13379" d="M468.4,422.152v33.3l28.863,16.652,28.8-16.652v-33.3l-28.8-16.652Z" transform="translate(-237.806 -338.955)" fill="none" stroke="#c2c2c2" stroke-miterlimit="10" stroke-width="2"/>
      <path id="Path_13380" data-name="Path 13380" d="M702.1,449.452v33.3l28.863,16.652,28.8-16.652v-33.3l-28.8-16.652Z" transform="translate(-615.635 -383.092)" fill="none" stroke="#c2c2c2" stroke-miterlimit="10" stroke-width="2"/>
      <path id="Path_13381" data-name="Path 13381" d="M608.6,449.452v33.3l28.863,16.652,28.8-16.652v-33.3l-28.8-16.652Z" transform="translate(-464.471 -383.092)" fill="none" stroke="#c2c2c2" stroke-miterlimit="10" stroke-width="2"/>
      <path id="Path_13382" data-name="Path 13382" d="M795.6,503.452v33.3l28.863,16.652,28.8-16.652v-33.3l-28.8-16.652Z" transform="translate(-766.799 -470.395)" fill="none" stroke="#c2c2c2" stroke-miterlimit="10" stroke-width="2"/>
      <path id="Path_13383" data-name="Path 13383" d="M748.8,530.152v33.242l28.8,16.652,28.863-16.652V530.152L777.6,513.5Z" transform="translate(-691.136 -513.5)" fill="none" stroke="#c2c2c2" stroke-miterlimit="10" stroke-width="2"/>
      <path id="Path_13384" data-name="Path 13384" d="M795.6,395.552v33.3l28.863,16.59,28.8-16.59v-33.3l-28.8-16.652Z" transform="translate(-766.799 -295.889)" fill="none" stroke="#c2c2c2" stroke-miterlimit="10" stroke-width="2"/>
      <path id="Path_13385" data-name="Path 13385" d="M842.3,314.252v33.3l28.8,16.59,28.863-16.59v-33.3L871.1,297.6Z" transform="translate(-842.3 -164.449)" fill="none" stroke="#c2c2c2" stroke-miterlimit="10" stroke-width="2"/>
      <path id="Path_13386" data-name="Path 13386" d="M421.6,449.452v33.3l28.8,16.652,28.863-16.652v-33.3L450.4,432.8Z" transform="translate(-162.143 -383.092)" fill="none" stroke="#c2c2c2" stroke-miterlimit="10" stroke-width="2"/>
      <path id="Path_13387" data-name="Path 13387" d="M795.6,341.552v33.242l28.863,16.652,28.8-16.652V341.552l-28.8-16.652Z" transform="translate(-766.799 -208.586)" fill="none" stroke="#c2c2c2" stroke-miterlimit="10" stroke-width="2"/>
      <path id="Path_13388" data-name="Path 13388" d="M702.1,503.452v33.3l28.863,16.652,28.8-16.652v-33.3l-28.8-16.652Z" transform="translate(-615.635 -470.395)" fill="none" stroke="#c2c2c2" stroke-miterlimit="10" stroke-width="2"/>
    </g>
    <g id="Group_656" data-name="Group 656" transform="translate(1283.051 183.167)" opacity="0.3">
      <path id="Path_13301" data-name="Path 13301" d="M899.964,455.455v-33.3l-28.8-16.652L842.3,422.152v33.3l28.863,16.652Z" transform="translate(-640.507 -272.349)" fill="none" stroke="#c2c2c2" stroke-miterlimit="10" stroke-width="0.75"/>
      <path id="Path_13302" data-name="Path 13302" d="M853.264,374.793V341.552L824.4,324.9l-28.8,16.652v33.242l28.8,16.651Z" transform="translate(-622.608 -241.457)" fill="none" stroke="#c2c2c2" stroke-miterlimit="10" stroke-width="0.75"/>
      <path id="Path_13303" data-name="Path 13303" d="M759.764,320.855v-33.3L730.9,270.9l-28.8,16.652v33.3l28.8,16.652Z" transform="translate(-586.772 -220.76)" fill="none" stroke="#c2c2c2" stroke-miterlimit="10" stroke-width="0.75"/>
      <path id="Path_13304" data-name="Path 13304" d="M759.764,428.793v-33.3L730.9,378.9l-28.8,16.59v33.3l28.8,16.652Z" transform="translate(-586.772 -262.154)" fill="none" stroke="#c2c2c2" stroke-miterlimit="10" stroke-width="0.75"/>
      <path id="Path_13305" data-name="Path 13305" d="M712.964,347.493v-33.3l-28.8-16.59L655.3,314.19v33.3l28.863,16.652Z" transform="translate(-568.835 -230.994)" fill="none" stroke="#c2c2c2" stroke-miterlimit="10" stroke-width="0.75"/>
      <path id="Path_13306" data-name="Path 13306" d="M666.264,320.855v-33.3L637.4,270.9l-28.8,16.652v33.3l28.8,16.652Z" transform="translate(-550.936 -220.76)" fill="none" stroke="#c2c2c2" stroke-miterlimit="10" stroke-width="0.75"/>
      <path id="Path_13307" data-name="Path 13307" d="M712.964,401.455v-33.3l-28.8-16.652L655.3,368.152v33.3l28.863,16.652Z" transform="translate(-568.835 -251.652)" fill="none" stroke="#c2c2c2" stroke-miterlimit="10" stroke-width="0.75"/>
      <path id="Path_13308" data-name="Path 13308" d="M899.964,240.193V206.952l-28.8-16.652L842.3,206.952v33.241l28.863,16.652Z" transform="translate(-640.507 -189.868)" fill="none" stroke="#c2c2c2" stroke-miterlimit="10" stroke-width="0.75"/>
      <path id="Path_13309" data-name="Path 13309" d="M853.264,266.855v-33.3L824.4,216.9l-28.8,16.652v33.3l28.8,16.652Z" transform="translate(-622.608 -200.063)" fill="none" stroke="#c2c2c2" stroke-miterlimit="10" stroke-width="0.75"/>
      <path id="Path_13310" data-name="Path 13310" d="M806.464,239.555v-33.3l-28.8-16.652L748.8,206.252v33.3l28.863,16.652Z" transform="translate(-604.671 -189.6)" fill="none" stroke="#c2c2c2" stroke-miterlimit="10" stroke-width="0.75"/>
      <path id="Path_13311" data-name="Path 13311" d="M806.464,347.493v-33.3l-28.8-16.59L748.8,314.19v33.3l28.863,16.652Z" transform="translate(-604.671 -230.994)" fill="none" stroke="#c2c2c2" stroke-miterlimit="10" stroke-width="0.75"/>
      <path id="Path_13312" data-name="Path 13312" d="M666.264,428.793v-33.3L637.4,378.9l-28.8,16.59v33.3l28.8,16.652Z" transform="translate(-550.936 -262.154)" fill="none" stroke="#c2c2c2" stroke-miterlimit="10" stroke-width="0.75"/>
      <path id="Path_13313" data-name="Path 13313" d="M619.5,455.455v-33.3L590.7,405.5l-28.8,16.652v33.3l28.8,16.652Z" transform="translate(-533.037 -272.349)" fill="none" stroke="#c2c2c2" stroke-miterlimit="10" stroke-width="0.75"/>
      <path id="Path_13314" data-name="Path 13314" d="M853.264,482.755v-33.3L824.4,432.8l-28.8,16.652v33.3l28.8,16.652Z" transform="translate(-622.608 -282.812)" fill="none" stroke="#c2c2c2" stroke-miterlimit="10" stroke-width="0.75"/>
      <path id="Path_13315" data-name="Path 13315" d="M759.764,482.755v-33.3L730.9,432.8l-28.8,16.652v33.3l28.8,16.652Z" transform="translate(-586.772 -282.812)" fill="none" stroke="#c2c2c2" stroke-miterlimit="10" stroke-width="0.75"/>
      <path id="Path_13316" data-name="Path 13316" d="M946.764,536.755v-33.3L917.9,486.8l-28.8,16.652v33.3l28.8,16.652Z" transform="translate(-658.445 -303.509)" fill="none" stroke="#c2c2c2" stroke-miterlimit="10" stroke-width="0.75"/>
      <path id="Path_13317" data-name="Path 13317" d="M899.964,563.393V530.152l-28.8-16.652L842.3,530.152v33.242l28.863,16.652Z" transform="translate(-640.507 -313.743)" fill="none" stroke="#c2c2c2" stroke-miterlimit="10" stroke-width="0.75"/>
      <path id="Path_13318" data-name="Path 13318" d="M946.764,428.793v-33.3L917.9,378.9l-28.8,16.59v33.3l28.8,16.652Z" transform="translate(-658.445 -262.154)" fill="none" stroke="#c2c2c2" stroke-miterlimit="10" stroke-width="0.75"/>
      <path id="Path_13319" data-name="Path 13319" d="M993.464,347.493v-33.3l-28.8-16.59L935.8,314.19v33.3l28.863,16.652Z" transform="translate(-676.344 -230.994)" fill="none" stroke="#c2c2c2" stroke-miterlimit="10" stroke-width="0.75"/>
      <path id="Path_13320" data-name="Path 13320" d="M572.764,482.755v-33.3l-28.8-16.652L515.1,449.452v33.3l28.863,16.652Z" transform="translate(-515.1 -282.812)" fill="none" stroke="#c2c2c2" stroke-miterlimit="10" stroke-width="0.75"/>
      <path id="Path_13321" data-name="Path 13321" d="M946.764,374.793V341.552L917.9,324.9l-28.8,16.652v33.242l28.8,16.651Z" transform="translate(-658.445 -241.457)" fill="none" stroke="#c2c2c2" stroke-miterlimit="10" stroke-width="0.75"/>
      <path id="Path_13322" data-name="Path 13322" d="M853.264,536.755v-33.3L824.4,486.8l-28.8,16.652v33.3l28.8,16.652Z" transform="translate(-622.608 -303.509)" fill="none" stroke="#c2c2c2" stroke-miterlimit="10" stroke-width="0.75"/>
    </g>
    <g id="Group_657" data-name="Group 657" transform="translate(1005.66 149.967)" opacity="0.3">
      <path id="Path_13323" data-name="Path 13323" d="M515,127.158v37.455l32.461,18.728,32.392-18.728V127.158L547.461,108.5Z" transform="translate(-450.147 -33.59)" fill="none" stroke="#c2c2c2" stroke-miterlimit="10" stroke-width="0.75"/>
      <path id="Path_13324" data-name="Path 13324" d="M468.2,46.628V84.083l32.392,18.658,32.461-18.658V46.628L500.592,27.9Z" transform="translate(-370.886 102.916)" fill="none" stroke="#c2c2c2" stroke-miterlimit="10" stroke-width="0.75"/>
      <path id="Path_13325" data-name="Path 13325" d="M374.7-7.372V30.013l32.392,18.728,32.461-18.728V-7.372L407.092-26.1Z" transform="translate(-212.533 194.371)" fill="none" stroke="#c2c2c2" stroke-miterlimit="10" stroke-width="0.75"/>
      <path id="Path_13326" data-name="Path 13326" d="M374.7,100.528v37.455l32.392,18.728,32.461-18.728V100.528L407.092,81.8Z" transform="translate(-212.533 11.56)" fill="none" stroke="#c2c2c2" stroke-miterlimit="10" stroke-width="0.75"/>
      <path id="Path_13327" data-name="Path 13327" d="M328,19.228V56.683L360.461,75.41l32.392-18.728V19.228L360.461.5Z" transform="translate(-133.441 149.251)" fill="none" stroke="#c2c2c2" stroke-miterlimit="10" stroke-width="0.75"/>
      <path id="Path_13328" data-name="Path 13328" d="M281.3-7.372V30.013l32.392,18.728,32.392-18.728V-7.372L313.692-26.1Z" transform="translate(-54.28 194.371)" fill="none" stroke="#c2c2c2" stroke-miterlimit="10" stroke-width="0.75"/>
      <path id="Path_13329" data-name="Path 13329" d="M328,73.228v37.455l32.461,18.728,32.392-18.728V73.228L360.461,54.5Z" transform="translate(-133.441 57.796)" fill="none" stroke="#c2c2c2" stroke-miterlimit="10" stroke-width="0.75"/>
      <path id="Path_13330" data-name="Path 13330" d="M515-88.072v37.455L547.461-31.89l32.392-18.728V-88.072L547.461-106.8Z" transform="translate(-450.147 330.976)" fill="none" stroke="#c2c2c2" stroke-miterlimit="10" stroke-width="0.75"/>
      <path id="Path_13331" data-name="Path 13331" d="M468.2-61.372v37.455L500.592-5.19l32.461-18.728V-61.372L500.592-80.1Z" transform="translate(-370.886 285.757)" fill="none" stroke="#c2c2c2" stroke-miterlimit="10" stroke-width="0.75"/>
      <path id="Path_13332" data-name="Path 13332" d="M421.5-88.672v37.386l32.461,18.728,32.392-18.728V-88.672L453.961-107.4Z" transform="translate(-291.794 332.062)" fill="none" stroke="#c2c2c2" stroke-miterlimit="10" stroke-width="0.75"/>
      <path id="Path_13333" data-name="Path 13333" d="M421.5,19.228V56.683L453.961,75.41l32.392-18.728V19.228L453.961.5Z" transform="translate(-291.794 149.251)" fill="none" stroke="#c2c2c2" stroke-miterlimit="10" stroke-width="0.75"/>
      <path id="Path_13334" data-name="Path 13334" d="M281.3,100.528v37.455l32.392,18.728,32.392-18.728V100.528L313.692,81.8Z" transform="translate(-54.28 11.56)" fill="none" stroke="#c2c2c2" stroke-miterlimit="10" stroke-width="0.75"/>
      <path id="Path_13335" data-name="Path 13335" d="M234.5,127.158v37.455l32.392,18.728,32.461-18.728V127.158L266.892,108.5Z" transform="translate(24.912 -33.59)" fill="none" stroke="#c2c2c2" stroke-miterlimit="10" stroke-width="0.75"/>
      <path id="Path_13336" data-name="Path 13336" d="M468.2,154.528v37.455l32.392,18.728,32.461-18.728V154.528L500.592,135.8Z" transform="translate(-370.886 -79.895)" fill="none" stroke="#c2c2c2" stroke-miterlimit="10" stroke-width="0.75"/>
      <path id="Path_13337" data-name="Path 13337" d="M374.7,154.528v37.455l32.392,18.728,32.461-18.728V154.528L407.092,135.8Z" transform="translate(-212.533 -79.895)" fill="none" stroke="#c2c2c2" stroke-miterlimit="10" stroke-width="0.75"/>
      <path id="Path_13338" data-name="Path 13338" d="M561.7,208.528v37.386l32.392,18.728,32.461-18.728V208.528L594.092,189.8Z" transform="translate(-529.239 -171.28)" fill="none" stroke="#c2c2c2" stroke-miterlimit="10" stroke-width="0.75"/>
      <path id="Path_13339" data-name="Path 13339" d="M515,235.128v37.455l32.461,18.728,32.392-18.728V235.128L547.461,216.4Z" transform="translate(-450.147 -216.4)" fill="none" stroke="#c2c2c2" stroke-miterlimit="10" stroke-width="0.75"/>
      <path id="Path_13340" data-name="Path 13340" d="M561.7,100.528v37.455l32.392,18.728,32.461-18.728V100.528L594.092,81.8Z" transform="translate(-529.239 11.56)" fill="none" stroke="#c2c2c2" stroke-miterlimit="10" stroke-width="0.75"/>
      <path id="Path_13341" data-name="Path 13341" d="M608.5,19.228V56.683L640.961,75.41l32.392-18.728V19.228L640.961.5Z" transform="translate(-608.5 149.251)" fill="none" stroke="#c2c2c2" stroke-miterlimit="10" stroke-width="0.75"/>
      <path id="Path_13342" data-name="Path 13342" d="M187.8,154.528v37.455l32.461,18.728,32.392-18.728V154.528L220.261,135.8Z" transform="translate(104.004 -79.895)" fill="none" stroke="#c2c2c2" stroke-miterlimit="10" stroke-width="0.75"/>
      <path id="Path_13343" data-name="Path 13343" d="M561.7,46.628V84.083l32.392,18.658,32.461-18.658V46.628L594.092,27.9Z" transform="translate(-529.239 102.916)" fill="none" stroke="#c2c2c2" stroke-miterlimit="10" stroke-width="0.75"/>
      <path id="Path_13344" data-name="Path 13344" d="M468.2,208.528v37.386l32.392,18.728,32.461-18.728V208.528L500.592,189.8Z" transform="translate(-370.886 -171.28)" fill="none" stroke="#c2c2c2" stroke-miterlimit="10" stroke-width="0.75"/>
    </g>
    <g id="Group_662" data-name="Group 662" transform="translate(677.196 129.04)" opacity="0.3">
      <path id="Path_13323-2" data-name="Path 13323" d="M515,128.462v40.072l34.729,20.036,34.655-20.036V128.462L549.729,108.5Z" transform="translate(-445.615 -28.355)" fill="none" stroke="#c2c2c2" stroke-miterlimit="10" stroke-width="0.75"/>
      <path id="Path_13324-2" data-name="Path 13324" d="M468.2,47.936V88.008l34.655,19.962,34.729-19.962V47.936L502.855,27.9Z" transform="translate(-364.086 112.056)" fill="none" stroke="#c2c2c2" stroke-miterlimit="10" stroke-width="0.75"/>
      <path id="Path_13325-2" data-name="Path 13325" d="M374.7-6.064v40L409.355,53.97l34.729-20.036v-40L409.355-26.1Z" transform="translate(-201.202 206.128)" fill="none" stroke="#c2c2c2" stroke-miterlimit="10" stroke-width="0.75"/>
      <path id="Path_13326-2" data-name="Path 13326" d="M374.7,101.836v40.072l34.655,20.036,34.729-20.036V101.836L409.355,81.8Z" transform="translate(-201.202 18.084)" fill="none" stroke="#c2c2c2" stroke-miterlimit="10" stroke-width="0.75"/>
      <path id="Path_13327-2" data-name="Path 13327" d="M328,20.536V60.608l34.729,20.036,34.655-20.036V20.536L362.729.5Z" transform="translate(-119.847 159.715)" fill="none" stroke="#c2c2c2" stroke-miterlimit="10" stroke-width="0.75"/>
      <path id="Path_13328-2" data-name="Path 13328" d="M281.3-6.064v40L315.955,53.97,350.61,33.934v-40L315.955-26.1Z" transform="translate(-38.417 206.128)" fill="none" stroke="#c2c2c2" stroke-miterlimit="10" stroke-width="0.75"/>
      <path id="Path_13329-2" data-name="Path 13329" d="M328,74.536v40.072l34.729,20.036,34.655-20.036V74.536L362.729,54.5Z" transform="translate(-119.847 65.643)" fill="none" stroke="#c2c2c2" stroke-miterlimit="10" stroke-width="0.75"/>
      <path id="Path_13330-2" data-name="Path 13330" d="M515-86.764v40.072l34.729,20.036,34.655-20.036V-86.764L549.729-106.8Z" transform="translate(-445.615 346.64)" fill="none" stroke="#c2c2c2" stroke-miterlimit="10" stroke-width="0.75"/>
      <path id="Path_13331-2" data-name="Path 13331" d="M468.2-60.064v40.072L502.855.045l34.729-20.036V-60.064L502.855-80.1Z" transform="translate(-364.086 300.126)" fill="none" stroke="#c2c2c2" stroke-miterlimit="10" stroke-width="0.75"/>
      <path id="Path_13332-2" data-name="Path 13332" d="M421.5-87.364v40L456.229-27.33l34.655-20.036v-40L456.229-107.4Z" transform="translate(-282.731 347.759)" fill="none" stroke="#c2c2c2" stroke-miterlimit="10" stroke-width="0.75"/>
      <path id="Path_13333-2" data-name="Path 13333" d="M421.5,20.536V60.608l34.729,20.036,34.655-20.036V20.536L456.229.5Z" transform="translate(-282.731 159.715)" fill="none" stroke="#c2c2c2" stroke-miterlimit="10" stroke-width="0.75"/>
      <path id="Path_13334-2" data-name="Path 13334" d="M281.3,101.836v40.072l34.655,20.036,34.655-20.036V101.836L315.955,81.8Z" transform="translate(-38.417 18.084)" fill="none" stroke="#c2c2c2" stroke-miterlimit="10" stroke-width="0.75"/>
      <path id="Path_13335-2" data-name="Path 13335" d="M234.5,128.462v40.072l34.655,20.036,34.729-20.036V128.462L269.155,108.5Z" transform="translate(43.038 -28.355)" fill="none" stroke="#c2c2c2" stroke-miterlimit="10" stroke-width="0.75"/>
      <path id="Path_13336-2" data-name="Path 13336" d="M468.2,155.836v40.072l34.655,20.036,34.729-20.036V155.836L502.855,135.8Z" transform="translate(-364.086 -75.988)" fill="none" stroke="#c2c2c2" stroke-miterlimit="10" stroke-width="0.75"/>
      <path id="Path_13337-2" data-name="Path 13337" d="M374.7,155.836v40.072l34.655,20.036,34.729-20.036V155.836L409.355,135.8Z" transform="translate(-201.202 -75.988)" fill="none" stroke="#c2c2c2" stroke-miterlimit="10" stroke-width="0.75"/>
      <path id="Path_13338-2" data-name="Path 13338" d="M561.7,209.836v40l34.655,20.036,34.729-20.036v-40L596.355,189.8Z" transform="translate(-526.971 -169.986)" fill="none" stroke="#c2c2c2" stroke-miterlimit="10" stroke-width="0.75"/>
      <path id="Path_13339-2" data-name="Path 13339" d="M515,236.436v40.072l34.729,20.036,34.655-20.036V236.436L549.729,216.4Z" transform="translate(-445.615 -216.4)" fill="none" stroke="#c2c2c2" stroke-miterlimit="10" stroke-width="0.75"/>
      <path id="Path_13340-2" data-name="Path 13340" d="M561.7,101.836v40.072l34.655,20.036,34.729-20.036V101.836L596.355,81.8Z" transform="translate(-526.971 18.084)" fill="none" stroke="#c2c2c2" stroke-miterlimit="10" stroke-width="0.75"/>
      <path id="Path_13341-2" data-name="Path 13341" d="M608.5,20.536V60.608l34.729,20.036,34.655-20.036V20.536L643.229.5Z" transform="translate(-608.5 159.715)" fill="none" stroke="#c2c2c2" stroke-miterlimit="10" stroke-width="0.75"/>
      <path id="Path_13342-2" data-name="Path 13342" d="M187.8,155.836v40.072l34.729,20.036,34.655-20.036V155.836L222.529,135.8Z" transform="translate(124.393 -75.988)" fill="none" stroke="#c2c2c2" stroke-miterlimit="10" stroke-width="0.75"/>
      <path id="Path_13343-2" data-name="Path 13343" d="M561.7,47.936V88.008l34.655,19.962,34.729-19.962V47.936L596.355,27.9Z" transform="translate(-526.971 112.056)" fill="none" stroke="#c2c2c2" stroke-miterlimit="10" stroke-width="0.75"/>
      <path id="Path_13344-2" data-name="Path 13344" d="M468.2,209.836v40l34.655,20.036,34.729-20.036v-40L502.855,189.8Z" transform="translate(-364.086 -169.986)" fill="none" stroke="#c2c2c2" stroke-miterlimit="10" stroke-width="0.75"/>
    </g>
    <g id="Group_658" data-name="Group 658" transform="translate(-0.26 149.967)" opacity="0.3">
      <path id="Path_13345" data-name="Path 13345" d="M159.246,462.394v-37.44L126.738,406.2,94.3,424.955v37.44l32.438,18.755Z" transform="translate(132.978 -256.233)" fill="none" stroke="#c2c2c2" stroke-miterlimit="10" stroke-width="0.75"/>
      <path id="Path_13346" data-name="Path 13346" d="M112.446,381.764V344.255L80.008,325.5,47.5,344.255v37.509l32.508,18.755Z" transform="translate(147.27 -231.588)" fill="none" stroke="#c2c2c2" stroke-miterlimit="10" stroke-width="0.75"/>
      <path id="Path_13347" data-name="Path 13347" d="M18.946,327.794v-37.44L-13.492,271.6-46,290.355v37.44l32.508,18.755Z" transform="translate(175.823 -215.128)" fill="none" stroke="#c2c2c2" stroke-miterlimit="10" stroke-width="0.75"/>
      <path id="Path_13348" data-name="Path 13348" d="M18.946,435.764V398.255L-13.492,379.5-46,398.255v37.509l32.508,18.755Z" transform="translate(175.823 -248.079)" fill="none" stroke="#c2c2c2" stroke-miterlimit="10" stroke-width="0.75"/>
      <path id="Path_13349" data-name="Path 13349" d="M-27.754,354.464V316.955L-60.262,298.2-92.7,316.955v37.509l32.438,18.755Z" transform="translate(190.085 -223.251)" fill="none" stroke="#c2c2c2" stroke-miterlimit="10" stroke-width="0.75"/>
      <path id="Path_13350" data-name="Path 13350" d="M-74.554,327.794v-37.44L-106.992,271.6-139.5,290.355v37.44l32.508,18.755Z" transform="translate(204.377 -215.128)" fill="none" stroke="#c2c2c2" stroke-miterlimit="10" stroke-width="0.75"/>
      <path id="Path_13351" data-name="Path 13351" d="M-27.754,408.464V370.955L-60.262,352.2-92.7,370.955v37.509l32.438,18.755Z" transform="translate(190.085 -239.742)" fill="none" stroke="#c2c2c2" stroke-miterlimit="10" stroke-width="0.75"/>
      <path id="Path_13352" data-name="Path 13352" d="M159.246,247.164V209.655L126.738,190.9,94.3,209.655v37.509l32.438,18.755Z" transform="translate(132.978 -190.483)" fill="none" stroke="#c2c2c2" stroke-miterlimit="10" stroke-width="0.75"/>
      <path id="Path_13353" data-name="Path 13353" d="M112.446,273.864V236.355L80.008,217.6,47.5,236.355v37.509l32.508,18.685Z" transform="translate(147.27 -198.637)" fill="none" stroke="#c2c2c2" stroke-miterlimit="10" stroke-width="0.75"/>
      <path id="Path_13354" data-name="Path 13354" d="M65.746,246.494v-37.44L33.238,190.3.8,209.055v37.44l32.438,18.755Z" transform="translate(161.531 -190.3)" fill="none" stroke="#c2c2c2" stroke-miterlimit="10" stroke-width="0.75"/>
      <path id="Path_13355" data-name="Path 13355" d="M65.746,354.464V316.955L33.238,298.2.8,316.955v37.509l32.438,18.755Z" transform="translate(161.531 -223.251)" fill="none" stroke="#c2c2c2" stroke-miterlimit="10" stroke-width="0.75"/>
      <path id="Path_13356" data-name="Path 13356" d="M-74.554,435.764V398.255L-106.992,379.5-139.5,398.255v37.509l32.508,18.755Z" transform="translate(204.377 -248.079)" fill="none" stroke="#c2c2c2" stroke-miterlimit="10" stroke-width="0.75"/>
      <path id="Path_13357" data-name="Path 13357" d="M-121.254,462.394v-37.44L-153.762,406.2-186.2,424.955v37.44l32.438,18.755Z" transform="translate(218.638 -256.233)" fill="none" stroke="#c2c2c2" stroke-miterlimit="10" stroke-width="0.75"/>
      <path id="Path_13358" data-name="Path 13358" d="M112.446,489.764V452.255L80.008,433.5,47.5,452.255v37.509l32.508,18.685Z" transform="translate(147.27 -264.57)" fill="none" stroke="#c2c2c2" stroke-miterlimit="10" stroke-width="0.75"/>
      <path id="Path_13359" data-name="Path 13359" d="M18.946,489.764V452.255L-13.492,433.5-46,452.255v37.509l32.508,18.685Z" transform="translate(175.823 -264.57)" fill="none" stroke="#c2c2c2" stroke-miterlimit="10" stroke-width="0.75"/>
      <path id="Path_13360" data-name="Path 13360" d="M205.946,543.694v-37.44L173.508,487.5,141,506.255v37.44l32.508,18.755Z" transform="translate(118.716 -281.061)" fill="none" stroke="#c2c2c2" stroke-miterlimit="10" stroke-width="0.75"/>
      <path id="Path_13361" data-name="Path 13361" d="M159.246,570.364V532.854L126.738,514.1,94.3,532.854v37.509l32.438,18.755Z" transform="translate(132.978 -289.184)" fill="none" stroke="#c2c2c2" stroke-miterlimit="10" stroke-width="0.75"/>
      <path id="Path_13362" data-name="Path 13362" d="M205.946,435.764V398.255L173.508,379.5,141,398.255v37.509l32.508,18.755Z" transform="translate(118.716 -248.079)" fill="none" stroke="#c2c2c2" stroke-miterlimit="10" stroke-width="0.75"/>
      <path id="Path_13363" data-name="Path 13363" d="M252.746,354.464V316.955L220.238,298.2,187.8,316.955v37.509l32.438,18.755Z" transform="translate(104.424 -223.251)" fill="none" stroke="#c2c2c2" stroke-miterlimit="10" stroke-width="0.75"/>
      <path id="Path_13364" data-name="Path 13364" d="M-168.023,489.764V452.255L-200.462,433.5-232.9,452.255v37.509l32.438,18.685Z" transform="translate(232.9 -264.57)" fill="none" stroke="#c2c2c2" stroke-miterlimit="10" stroke-width="0.75"/>
      <path id="Path_13365" data-name="Path 13365" d="M205.946,381.764V344.255L173.508,325.5,141,344.255v37.509l32.508,18.755Z" transform="translate(118.716 -231.588)" fill="none" stroke="#c2c2c2" stroke-miterlimit="10" stroke-width="0.75"/>
      <path id="Path_13366" data-name="Path 13366" d="M112.446,543.694v-37.44L80.008,487.5,47.5,506.255v37.44l32.508,18.755Z" transform="translate(147.27 -281.061)" fill="none" stroke="#c2c2c2" stroke-miterlimit="10" stroke-width="0.75"/>
    </g>
    <g id="Group_661" data-name="Group 661" transform="translate(300.74 129.04)" opacity="0.3">
      <path id="Path_13345-2" data-name="Path 13345" d="M163.778,466.315V426.263L129,406.2,94.3,426.263v40.052L129,486.378Z" transform="translate(148.835 -245.769)" fill="none" stroke="#c2c2c2" stroke-miterlimit="10" stroke-width="0.75"/>
      <path id="Path_13346-2" data-name="Path 13346" d="M116.978,385.689V345.563L82.276,325.5,47.5,345.563v40.126l34.776,20.063Z" transform="translate(160.859 -225.036)" fill="none" stroke="#c2c2c2" stroke-miterlimit="10" stroke-width="0.75"/>
      <path id="Path_13347-2" data-name="Path 13347" d="M23.478,331.715V291.663l-34.7-20.063L-46,291.663v40.052l34.776,20.063Z" transform="translate(184.881 -211.188)" fill="none" stroke="#c2c2c2" stroke-miterlimit="10" stroke-width="0.75"/>
      <path id="Path_13348-2" data-name="Path 13348" d="M23.478,439.689V399.563l-34.7-20.063L-46,399.563v40.126l34.776,20.063Z" transform="translate(184.881 -238.91)" fill="none" stroke="#c2c2c2" stroke-miterlimit="10" stroke-width="0.75"/>
      <path id="Path_13349-2" data-name="Path 13349" d="M-23.222,358.389V318.263L-58,298.2l-34.7,20.063v40.126L-58,378.453Z" transform="translate(196.88 -218.022)" fill="none" stroke="#c2c2c2" stroke-miterlimit="10" stroke-width="0.75"/>
      <path id="Path_13350-2" data-name="Path 13350" d="M-70.022,331.715V291.663l-34.7-20.063L-139.5,291.663v40.052l34.776,20.063Z" transform="translate(208.904 -211.188)" fill="none" stroke="#c2c2c2" stroke-miterlimit="10" stroke-width="0.75"/>
      <path id="Path_13351-2" data-name="Path 13351" d="M-23.222,412.389V372.263L-58,352.2l-34.7,20.063v40.126L-58,432.453Z" transform="translate(196.88 -231.896)" fill="none" stroke="#c2c2c2" stroke-miterlimit="10" stroke-width="0.75"/>
      <path id="Path_13352-2" data-name="Path 13352" d="M163.778,251.089V210.963L129,190.9,94.3,210.963v40.126L129,271.152Z" transform="translate(148.835 -190.454)" fill="none" stroke="#c2c2c2" stroke-miterlimit="10" stroke-width="0.75"/>
      <path id="Path_13353-2" data-name="Path 13353" d="M116.978,277.789V237.663L82.276,217.6,47.5,237.663v40.126l34.776,19.989Z" transform="translate(160.859 -197.314)" fill="none" stroke="#c2c2c2" stroke-miterlimit="10" stroke-width="0.75"/>
      <path id="Path_13354-2" data-name="Path 13354" d="M70.278,250.415V210.363L35.5,190.3.8,210.363v40.052l34.7,20.063Z" transform="translate(172.858 -190.3)" fill="none" stroke="#c2c2c2" stroke-miterlimit="10" stroke-width="0.75"/>
      <path id="Path_13355-2" data-name="Path 13355" d="M70.278,358.389V318.263L35.5,298.2.8,318.263v40.126l34.7,20.063Z" transform="translate(172.858 -218.022)" fill="none" stroke="#c2c2c2" stroke-miterlimit="10" stroke-width="0.75"/>
      <path id="Path_13356-2" data-name="Path 13356" d="M-70.022,439.689V399.563l-34.7-20.063L-139.5,399.563v40.126l34.776,20.063Z" transform="translate(208.904 -238.91)" fill="none" stroke="#c2c2c2" stroke-miterlimit="10" stroke-width="0.75"/>
      <path id="Path_13357-2" data-name="Path 13357" d="M-116.722,466.315V426.263L-151.5,406.2l-34.7,20.063v40.052l34.7,20.063Z" transform="translate(220.902 -245.769)" fill="none" stroke="#c2c2c2" stroke-miterlimit="10" stroke-width="0.75"/>
      <path id="Path_13358-2" data-name="Path 13358" d="M116.978,493.689V453.563L82.276,433.5,47.5,453.563v40.126l34.776,19.989Z" transform="translate(160.859 -252.783)" fill="none" stroke="#c2c2c2" stroke-miterlimit="10" stroke-width="0.75"/>
      <path id="Path_13359-2" data-name="Path 13359" d="M23.478,493.689V453.563l-34.7-20.063L-46,453.563v40.126l34.776,19.989Z" transform="translate(184.881 -252.783)" fill="none" stroke="#c2c2c2" stroke-miterlimit="10" stroke-width="0.75"/>
      <path id="Path_13360-2" data-name="Path 13360" d="M210.478,547.615V507.563l-34.7-20.063L141,507.563v40.052l34.776,20.063Z" transform="translate(136.837 -266.657)" fill="none" stroke="#c2c2c2" stroke-miterlimit="10" stroke-width="0.75"/>
      <path id="Path_13361-2" data-name="Path 13361" d="M163.778,574.289V534.163L129,514.1,94.3,534.163v40.126L129,594.352Z" transform="translate(148.835 -273.491)" fill="none" stroke="#c2c2c2" stroke-miterlimit="10" stroke-width="0.75"/>
      <path id="Path_13362-2" data-name="Path 13362" d="M210.478,439.689V399.563l-34.7-20.063L141,399.563v40.126l34.776,20.063Z" transform="translate(136.837 -238.91)" fill="none" stroke="#c2c2c2" stroke-miterlimit="10" stroke-width="0.75"/>
      <path id="Path_13363-2" data-name="Path 13363" d="M257.278,358.389V318.263L222.5,298.2l-34.7,20.063v40.126l34.7,20.063Z" transform="translate(124.813 -218.022)" fill="none" stroke="#c2c2c2" stroke-miterlimit="10" stroke-width="0.75"/>
      <path id="Path_13364-2" data-name="Path 13364" d="M-163.5,493.689V453.563L-198.2,433.5l-34.7,20.063v40.126l34.7,19.989Z" transform="translate(232.9 -252.783)" fill="none" stroke="#c2c2c2" stroke-miterlimit="10" stroke-width="0.75"/>
      <path id="Path_13365-2" data-name="Path 13365" d="M210.478,385.689V345.563l-34.7-20.063L141,345.563v40.126l34.776,20.063Z" transform="translate(136.837 -225.036)" fill="none" stroke="#c2c2c2" stroke-miterlimit="10" stroke-width="0.75"/>
      <path id="Path_13366-2" data-name="Path 13366" d="M116.978,547.615V507.563L82.276,487.5,47.5,507.563v40.052l34.776,20.063Z" transform="translate(160.859 -266.657)" fill="none" stroke="#c2c2c2" stroke-miterlimit="10" stroke-width="0.75"/>
    </g>
    <g id="Group_660" data-name="Group 660" transform="translate(-0.26)" opacity="0.2">
      <path id="Path_13389" data-name="Path 13389" d="M159.246,246.494v-37.44L126.738,190.3,94.3,209.055v37.44l32.438,18.755Z" transform="translate(132.978 -40.333)" fill="none" stroke="#c2c2c2" stroke-miterlimit="10" stroke-width="2"/>
      <path id="Path_13390" data-name="Path 13390" d="M112.446,165.864V128.355L80.008,109.6,47.5,128.355v37.509l32.508,18.755Z" transform="translate(147.27 -15.688)" fill="none" stroke="#c2c2c2" stroke-miterlimit="10" stroke-width="2"/>
      <path id="Path_13391" data-name="Path 13391" d="M18.946,111.894V74.455L-13.492,55.7-46,74.455v37.44l32.508,18.755Z" transform="translate(175.823 0.772)" fill="none" stroke="#c2c2c2" stroke-miterlimit="10" stroke-width="2"/>
      <path id="Path_13392" data-name="Path 13392" d="M18.946,219.864V182.355L-13.492,163.6-46,182.355v37.509l32.508,18.755Z" transform="translate(175.823 -32.179)" fill="none" stroke="#c2c2c2" stroke-miterlimit="10" stroke-width="2"/>
      <path id="Path_13393" data-name="Path 13393" d="M-27.754,138.564V101.055L-60.262,82.3-92.7,101.055v37.509l32.438,18.755Z" transform="translate(190.085 -7.351)" fill="none" stroke="#c2c2c2" stroke-miterlimit="10" stroke-width="2"/>
      <path id="Path_13394" data-name="Path 13394" d="M-74.554,111.894V74.455L-106.992,55.7-139.5,74.455v37.44l32.508,18.755Z" transform="translate(204.377 0.772)" fill="none" stroke="#c2c2c2" stroke-miterlimit="10" stroke-width="2"/>
      <path id="Path_13395" data-name="Path 13395" d="M-27.754,192.564V155.055L-60.262,136.3-92.7,155.055v37.509l32.438,18.685Z" transform="translate(190.085 -23.842)" fill="none" stroke="#c2c2c2" stroke-miterlimit="10" stroke-width="2"/>
      <path id="Path_13396" data-name="Path 13396" d="M159.246,31.264V-6.245L126.738-25,94.3-6.245V31.264l32.438,18.755Z" transform="translate(132.978 25.417)" fill="none" stroke="#c2c2c2" stroke-miterlimit="10" stroke-width="2"/>
      <path id="Path_13397" data-name="Path 13397" d="M112.446,57.964V20.455L80.008,1.7,47.5,20.455V57.964L80.008,76.649Z" transform="translate(147.27 17.263)" fill="none" stroke="#c2c2c2" stroke-miterlimit="10" stroke-width="2"/>
      <path id="Path_13398" data-name="Path 13398" d="M65.746,30.594V-6.915L33.238-25.6.8-6.915V30.594L33.238,49.349Z" transform="translate(161.531 25.6)" fill="none" stroke="#c2c2c2" stroke-miterlimit="10" stroke-width="2"/>
      <path id="Path_13399" data-name="Path 13399" d="M65.746,138.564V101.055L33.238,82.3.8,101.055v37.509l32.438,18.755Z" transform="translate(161.531 -7.351)" fill="none" stroke="#c2c2c2" stroke-miterlimit="10" stroke-width="2"/>
      <path id="Path_13400" data-name="Path 13400" d="M-74.554,219.864V182.355L-106.992,163.6-139.5,182.355v37.509l32.508,18.755Z" transform="translate(204.377 -32.179)" fill="none" stroke="#c2c2c2" stroke-miterlimit="10" stroke-width="2"/>
      <path id="Path_13401" data-name="Path 13401" d="M-121.254,246.494v-37.44L-153.762,190.3-186.2,209.055v37.44l32.438,18.755Z" transform="translate(218.638 -40.333)" fill="none" stroke="#c2c2c2" stroke-miterlimit="10" stroke-width="2"/>
      <path id="Path_13402" data-name="Path 13402" d="M112.446,273.864V236.355L80.008,217.6,47.5,236.355v37.509l32.508,18.685Z" transform="translate(147.27 -48.67)" fill="none" stroke="#c2c2c2" stroke-miterlimit="10" stroke-width="2"/>
      <path id="Path_13403" data-name="Path 13403" d="M18.946,273.864V236.355L-13.492,217.6-46,236.355v37.509l32.508,18.685Z" transform="translate(175.823 -48.67)" fill="none" stroke="#c2c2c2" stroke-miterlimit="10" stroke-width="2"/>
      <path id="Path_13404" data-name="Path 13404" d="M205.946,327.794v-37.44L173.508,271.6,141,290.355v37.44l32.508,18.755Z" transform="translate(118.716 -65.161)" fill="none" stroke="#c2c2c2" stroke-miterlimit="10" stroke-width="2"/>
      <path id="Path_13405" data-name="Path 13405" d="M159.246,354.464V316.955L126.738,298.2,94.3,316.955v37.509l32.438,18.755Z" transform="translate(132.978 -73.284)" fill="none" stroke="#c2c2c2" stroke-miterlimit="10" stroke-width="2"/>
      <path id="Path_13406" data-name="Path 13406" d="M205.946,219.864V182.355L173.508,163.6,141,182.355v37.509l32.508,18.755Z" transform="translate(118.716 -32.179)" fill="none" stroke="#c2c2c2" stroke-miterlimit="10" stroke-width="2"/>
      <path id="Path_13407" data-name="Path 13407" d="M252.746,138.564V101.055L220.238,82.3,187.8,101.055v37.509l32.438,18.755Z" transform="translate(104.424 -7.351)" fill="none" stroke="#c2c2c2" stroke-miterlimit="10" stroke-width="2"/>
      <path id="Path_13408" data-name="Path 13408" d="M-168.023,273.864V236.355L-200.462,217.6-232.9,236.355v37.509l32.438,18.685Z" transform="translate(232.9 -48.67)" fill="none" stroke="#c2c2c2" stroke-miterlimit="10" stroke-width="2"/>
      <path id="Path_13409" data-name="Path 13409" d="M205.946,165.864V128.355L173.508,109.6,141,128.355v37.509l32.508,18.755Z" transform="translate(118.716 -15.688)" fill="none" stroke="#c2c2c2" stroke-miterlimit="10" stroke-width="2"/>
      <path id="Path_13410" data-name="Path 13410" d="M112.446,327.794v-37.44L80.008,271.6,47.5,290.355v37.44l32.508,18.755Z" transform="translate(147.27 -65.161)" fill="none" stroke="#c2c2c2" stroke-miterlimit="10" stroke-width="2"/>
    </g>
  </g>
</svg>
